<svg width="24" height="24" viewBox="0 0 24 24" fill="none" xmlns="http://www.w3.org/2000/svg">
<g clip-path="url(#clip0_1_104)">
<path d="M3.33481 8.8804H10.7152V14.8007H3.33481V8.8804Z" fill="#F3A80C"/>
<path d="M3.33492 5.92026C2.55196 5.92026 1.80107 6.23213 1.24743 6.78726C0.693797 7.34239 0.382767 8.09532 0.382767 8.88039L0.382767 14.8007C0.382767 15.5857 0.693797 16.3387 1.24743 16.8938C1.80107 17.4489 2.55196 17.7608 3.33492 17.7608H18.0957C18.8787 17.7608 19.6296 17.4489 20.1832 16.8938C20.7368 16.3387 21.0479 15.5857 21.0479 14.8007V8.88039C21.0479 8.09532 20.7368 7.34239 20.1832 6.78726C19.6296 6.23213 18.8787 5.92026 18.0957 5.92026H3.33492ZM18.0957 7.40033C18.4872 7.40033 18.8626 7.55626 19.1395 7.83383C19.4163 8.11139 19.5718 8.48785 19.5718 8.88039V14.8007C19.5718 15.1932 19.4163 15.5697 19.1395 15.8472C18.8626 16.1248 18.4872 16.2807 18.0957 16.2807H3.33492C2.94344 16.2807 2.568 16.1248 2.29118 15.8472C2.01436 15.5697 1.85884 15.1932 1.85884 14.8007V8.88039C1.85884 8.48785 2.01436 8.11139 2.29118 7.83383C2.568 7.55626 2.94344 7.40033 3.33492 7.40033H18.0957ZM24 11.8405C24 12.4293 23.7667 12.994 23.3515 13.4104C22.9363 13.8267 22.3731 14.0606 21.7859 14.0606V9.62043C22.3731 9.62043 22.9363 9.85433 23.3515 10.2707C23.7667 10.687 24 11.2517 24 11.8405Z" fill="black"/>
</g>
<defs>
<clipPath id="clip0_1_104">
<rect width="23.6173" height="23.6811" fill="white" transform="translate(0.382782)"/>
</clipPath>
</defs>
</svg>
