<svg width="14" height="12" viewBox="0 0 14 12" fill="none" xmlns="http://www.w3.org/2000/svg">
<g clip-path="url(#clip0_1_102)">
<path d="M0.415559 3.68191C4.18743 0.183758 10.0538 0.185039 13.8242 3.68191C13.966 3.81341 13.9687 4.03606 13.8316 4.17247L13.1027 4.89763C12.9719 5.02785 12.7616 5.03062 12.6258 4.90574C9.5192 2.05206 4.72095 2.05142 1.61374 4.90574C1.47791 5.03062 1.26757 5.02764 1.13685 4.89763L0.407893 4.17247C0.271002 4.03606 0.27377 3.81341 0.415559 3.68191ZM7.11986 7.88986C7.87245 7.88986 8.48239 8.50145 8.48239 9.25607C8.48239 10.0107 7.87245 10.6223 7.11986 10.6223C6.36727 10.6223 5.75733 10.0107 5.75733 9.25607C5.75733 8.50145 6.36727 7.88986 7.11986 7.88986ZM2.8051 6.10545C5.25894 3.92954 8.98355 3.93189 11.4346 6.10545C11.5815 6.23567 11.5862 6.46174 11.4468 6.59964L10.7135 7.32523C10.5858 7.4516 10.3801 7.46014 10.2441 7.3423C8.45685 5.79314 5.77883 5.79656 3.99583 7.3423C3.85979 7.46014 3.65413 7.45182 3.52639 7.32523L2.79318 6.59964C2.65352 6.46174 2.65842 6.23546 2.8051 6.10545Z" fill="black"/>
</g>
<defs>
<clipPath id="clip0_1_102">
<rect width="13.6253" height="10.9297" fill="white" transform="matrix(-1 0 0 1 13.9326 0.375671)"/>
</clipPath>
</defs>
</svg>
